<?xml version="1.0" encoding="UTF-8"?><svg id="a" xmlns="http://www.w3.org/2000/svg" viewBox="0 0 131.46 41.62"><defs><style>.b{fill:#706f6f;}.c{fill:#ea5818;}</style></defs><path class="c" d="M28.54,0h-4.82c-2.38,0-4.58,.77-6.38,2.06C15.54,.77,13.33,0,10.96,0H6.13C2.75,0,0,2.75,0,6.13V30.52c0,6.1,4.66,10.89,10.61,10.89v-2.7c-4.44,0-7.91-3.6-7.91-8.19V6.13c0-1.89,1.54-3.44,3.44-3.44h4.82c1.6,0,3.09,.46,4.36,1.25-1.59,1.9-2.55,4.35-2.55,7.01v30.22h2.7V10.96c0-1.99,.7-3.81,1.88-5.24,1.17,1.43,1.88,3.25,1.88,5.24l.02,30.21h2.7l-.02-30.21c0-2.67-.96-5.11-2.55-7.01,1.27-.79,2.76-1.25,4.36-1.25h4.82c1.89,0,3.44,1.54,3.44,3.44V30.52c0,4.63-3.45,8.26-7.84,8.26v2.7c5.91,0,10.54-4.81,10.54-10.95V6.13c0-3.38-2.75-6.13-6.13-6.13Z"/><path class="b" d="M53.57,41.62h-12.45c-1.98,0-3.6-1.61-3.6-3.6v-2.46h0v-9.95c.01-3.25,2.56-5.8,5.81-5.8h11.78c1.91,0,3.47,1.6,3.47,3.57v2.44c0,3.3-2.6,5.98-5.79,5.99h-9.19c-.99,0-1.93,.38-2.64,1.09-.71,.71-1.1,1.65-1.1,2.65v2.46c0,.71,.58,1.29,1.29,1.29h12.45c2.08,0,3.71-1.57,3.71-3.57h2.31c0,3.3-2.65,5.88-6.02,5.88Zm-10.25-19.49c-1.99,0-3.48,1.5-3.48,3.49v5.19c1.06-.85,2.37-1.31,3.74-1.31h9.19c1.92,0,3.48-1.65,3.48-3.67v-2.44c0-.7-.52-1.26-1.15-1.26h-11.78Z"/><path class="b" d="M79.69,41.6h-11.47c-3.14,0-5.7-2.56-5.71-5.71l-.04-10.05c0-3.31,2.61-6.01,5.82-6.02h8.78c1,0,1.94-.38,2.66-1.1,.68-.68,1.07-1.57,1.11-2.52l-.02-16.08h2.31l.03,15.94c0,.06,0,.12,0,.18l.03,21.88c0,1.92-1.56,3.48-3.48,3.48Zm-11.4-19.46c-1.94,0-3.51,1.66-3.51,3.7l.04,10.04c0,1.88,1.53,3.41,3.4,3.41h11.47c.64,0,1.17-.52,1.17-1.17l-.03-17.29c-1.07,.85-2.39,1.32-3.77,1.32h-8.77Z"/><path class="b" d="M100.97,41.54h-9.21c-3.18,0-5.76-2.59-5.76-5.76v-10.01c0-3.21,2.61-5.81,5.81-5.81h9.16c3.21,0,5.81,2.61,5.81,5.81v9.96c0,3.21-2.61,5.81-5.81,5.81Zm-9.16-19.28c-1.93,0-3.5,1.57-3.5,3.5v10.01c0,1.9,1.55,3.45,3.45,3.45h9.21c1.93,0,3.5-1.57,3.5-3.5v-9.96c0-1.93-1.57-3.5-3.5-3.5h-9.16Z"/><path class="b" d="M127.89,41.43h-12.33c-3.35,0-5.98-2.58-5.98-5.88h2.31c0,2.04,1.58,3.57,3.67,3.57h12.33c.7,0,1.26-.58,1.26-1.29v-2.46c0-1.01-.39-1.96-1.11-2.67-.7-.7-1.61-1.08-2.58-1.08h-9.25c-1.55,0-3.01-.62-4.11-1.76-1.09-1.13-1.69-2.63-1.69-4.22v-2.44c0-1.97,1.55-3.57,3.47-3.57h10.51c3.23,0,5.76,2.55,5.76,5.82h-2.31c0-2-1.48-3.5-3.45-3.5h-10.51c-.64,0-1.15,.57-1.15,1.26v2.44c0,.99,.37,1.92,1.04,2.62,.66,.68,1.52,1.06,2.44,1.06h9.25c1.58,0,3.08,.61,4.21,1.74,1.15,1.15,1.79,2.68,1.79,4.31v2.46c0,1.98-1.6,3.6-3.57,3.6Z"/></svg>